<?xml version="1.0" encoding="UTF-8"?>
<!DOCTYPE svg PUBLIC "-//W3C//DTD SVG 1.1//EN" "http://www.w3.org/Graphics/SVG/1.1/DTD/svg11.dtd">
<!-- Creator: CorelDRAW -->
<svg xmlns="http://www.w3.org/2000/svg" xml:space="preserve" width="1.91666in" height="1.91666in" version="1.1" style="shape-rendering:geometricPrecision; text-rendering:geometricPrecision; image-rendering:optimizeQuality; fill-rule:evenodd; clip-rule:evenodd"
viewBox="0 0 1916.66 1916.66"
 xmlns:xlink="http://www.w3.org/1999/xlink"
 xmlns:xodm="http://www.corel.com/coreldraw/odm/2003">
 <defs>
  <style type="text/css">
   <![CDATA[
    .str0 {stroke:black;stroke-width:10.41;stroke-miterlimit:2.61313}
    .fil0 {fill:#005555}
    .fil1 {fill:#221F20}
   ]]>
  </style>
 </defs>
 <g id="Layer_x0020_1">
  <metadata id="CorelCorpID_0Corel-Layer"/>
  <rect class="fil0 str0" x="2.52" y="12.8" width="1908.28" height="1908.28" rx="145.83" ry="115.99"/>
  <g id="_2592096223136">
   <path class="fil1" d="M1107.87 608.39l-159.96 -0.2 -0.91 -557.1 -209.8 0.28c-19.06,15.37 -6.93,-12.41 -13.44,26.96l0.39 529.78 -585.18 0.26 -0.34 225.6 585.49 0 1.05 548.33 222.75 -3.48 0.06 -544.84c145.15,0 224.2,-6.67 331.5,63.42 71.76,46.88 139.72,118.9 169.76,222.48 38.72,133.51 19.3,588.63 19.3,762.04l220.39 -3.57c0,-153.32 0,-306.63 0,-459.94 0,-67.12 1.55,-128.28 -0.92,-186.69 -3.31,-78.15 -13.8,-151.41 -44.85,-227.46 -66.25,-162.33 -187.01,-282.87 -350.39,-348.2 -63.74,-25.49 -121.17,-30.37 -184.91,-47.63l0.01 0z"/>
  </g>
 </g>
</svg>
